<svg id="Layer_1" enable-background="new 0 0 512 512" height="512" viewBox="0 0 512 512" width="512" xmlns="http://www.w3.org/2000/svg"><g><path d="m111.251 491.577c-51.13-4.433-91.251-47.335-91.251-99.614v-168.272c0-31.191 14.554-60.596 39.355-79.512l136-103.729c35.816-27.317 85.474-27.317 121.29 0l9.2 7.017c-24.56-2.424-49.828 4.224-70.489 19.983l-161.744 123.364c-8.578 6.542-13.612 16.713-13.612 27.501v200.647c0 28.598 12.007 54.389 31.251 72.615z" fill="#cee1f2"/><path d="m392 511.963h-272c-66.168 0-120-53.832-120-120v-168.271c0-37.191 17.655-72.86 47.226-95.415l136-103.729c42.849-32.681 102.699-32.681 145.548 0l136 103.729c29.571 22.554 47.226 58.223 47.226 95.415v168.271c0 66.168-53.832 120-120 120zm-136-471.951c-17.119 0-34.231 5.446-48.516 16.34l-136 103.729c-19.714 15.037-31.484 38.816-31.484 63.611v168.271c0 44.112 35.888 80 80 80h272c44.112 0 80-35.888 80-80v-168.271c0-24.794-11.77-48.574-31.484-63.61l-136-103.729c-14.281-10.892-31.401-16.341-48.516-16.341z" fill="#0023c4"/><path d="m256 394.892c-13.417.001-26.829-4.19-38.025-12.573-46.199-34.592-71.086-76.023-71.971-119.814-.002-.135-.004-.27-.004-.404 0-35.917 29.159-65.137 65-65.137 17.448 0 33.313 6.91 45 18.138 11.688-11.228 27.552-18.138 45-18.138 35.841 0 65 29.22 65 65.137 0 .135-.001.27-.004.404-.885 43.791-25.772 85.222-71.972 119.814-11.192 8.381-24.61 12.572-38.024 12.573zm-70-132.977c.901 39.09 30.908 69.634 55.95 88.385 8.273 6.195 19.829 6.195 28.099 0 25.042-18.75 55.049-49.294 55.95-88.385-.1-13.776-11.276-24.953-25-24.953-13.785 0-25 11.215-25 25 0 11.046-8.954 20-20 20s-20-8.954-20-20c0-13.785-11.215-25-25-25-13.723.001-24.899 11.177-24.999 24.953z" fill="#ff5cf4"/></g></svg>